# xmcd
#
# Track frame offsets: 
#        150
#        15435
#        38587
#        59932
#        79650
#        95727
#        110387
#        133695
#        158200
#        174025
#        189157
#        205397
#        222580
#        244410
#        265467
#        290625
#
# Disc length: 4164 seconds
#
# Revision: 0
# Processed by: cddbd v1.5.2PL0 Copyright (c) Steve Scherf et al.
# Submitted via: ExactAudioCopy v0.99pb5
#
DISCID=eb104210
DTITLE=Abba - Voulez-Vous
DYEAR=1979
DGENRE=Classical
TTITLE0=As Good As New
TTITLE1=Voulez-Vous
TTITLE2=I Have a Dream
TTITLE3=Angeleyes
TTITLE4=The King Has Lost His Crown
TTITLE5=Does Your Mother Know
TTITLE6=If It Wasn't for the Nights
TTITLE7=Chiquitita (English)
TTITLE8=Lovers (Live a Little Longer)
TTITLE9=Kisses of Fire
TTITLE10=Summer Night City
TTITLE11=Lovelight
TTITLE12=Gimme! Gimme! Gimme! (A Man after Midnight)
TTITLE13=Estoy Soñando
TTITLE14=Chiquitita (Spanish Version)
TTITLE15=Dame! Dame! Dame!
EXTD=
EXTT0=
EXTT1=
EXTT2=
EXTT3=
EXTT4=
EXTT5=
EXTT6=
EXTT7=
EXTT8=
EXTT9=
EXTT10=
EXTT11=
EXTT12=
EXTT13=
EXTT14=
EXTT15=
PLAYORDER=
